<mxfile host="app.diagrams.net" modified="2024-04-16T13:07:19.148Z" agent="Mozilla/5.0 (Windows NT 10.0; Win64; x64) AppleWebKit/537.36 (KHTML, like Gecko) Chrome/121.0.0.0 Safari/537.36 OPR/107.0.0.0" etag="sZIWSddJJNUJ2DWrY4jX" version="24.2.5" type="github">
  <diagram name="Strona-1" id="BxVM9EEZGzVjw5J-JY-A">
    <mxGraphModel dx="1521" dy="830" grid="1" gridSize="10" guides="1" tooltips="1" connect="1" arrows="1" fold="1" page="1" pageScale="1" pageWidth="1169" pageHeight="827" math="0" shadow="0">
      <root>
        <mxCell id="0" />
        <mxCell id="1" parent="0" />
        <mxCell id="dsa9-XPuG5602Wf-8mjY-1" value="" style="ellipse;html=1;shape=startState;fillColor=#000000;strokeColor=#ff0000;" vertex="1" parent="1">
          <mxGeometry x="115" y="60" width="30" height="30" as="geometry" />
        </mxCell>
        <mxCell id="dsa9-XPuG5602Wf-8mjY-2" value="" style="edgeStyle=orthogonalEdgeStyle;html=1;verticalAlign=bottom;endArrow=open;endSize=8;strokeColor=#000000;rounded=0;" edge="1" source="dsa9-XPuG5602Wf-8mjY-1" parent="1" target="dsa9-XPuG5602Wf-8mjY-3">
          <mxGeometry relative="1" as="geometry">
            <mxPoint x="130" y="150" as="targetPoint" />
          </mxGeometry>
        </mxCell>
        <mxCell id="dsa9-XPuG5602Wf-8mjY-4" value="after(1 tydzień)&amp;nbsp;&lt;div&gt;potwierdzenie[pozytywne]/kompletowanie()&lt;/div&gt;" style="edgeStyle=orthogonalEdgeStyle;rounded=0;orthogonalLoop=1;jettySize=auto;html=1;labelBackgroundColor=none;" edge="1" parent="1" source="dsa9-XPuG5602Wf-8mjY-3" target="dsa9-XPuG5602Wf-8mjY-7">
          <mxGeometry relative="1" as="geometry">
            <mxPoint x="130" y="310" as="targetPoint" />
          </mxGeometry>
        </mxCell>
        <mxCell id="dsa9-XPuG5602Wf-8mjY-3" value="Przyjmowanie zamówienia od internauty" style="rounded=1;whiteSpace=wrap;html=1;" vertex="1" parent="1">
          <mxGeometry x="70" y="160" width="120" height="60" as="geometry" />
        </mxCell>
        <mxCell id="dsa9-XPuG5602Wf-8mjY-14" value="after(1 tydzień)&amp;nbsp;&lt;div&gt;potwierdzenie[brak]/usunięcie()&lt;/div&gt;" style="edgeStyle=orthogonalEdgeStyle;rounded=0;orthogonalLoop=1;jettySize=auto;html=1;strokeColor=default;align=center;verticalAlign=bottom;fontFamily=Helvetica;fontSize=11;fontColor=default;labelBackgroundColor=none;endArrow=classic;" edge="1" parent="1" source="dsa9-XPuG5602Wf-8mjY-3" target="dsa9-XPuG5602Wf-8mjY-15">
          <mxGeometry relative="1" as="geometry">
            <mxPoint x="310" y="340" as="targetPoint" />
          </mxGeometry>
        </mxCell>
        <mxCell id="dsa9-XPuG5602Wf-8mjY-10" value="wysłanie prośby o&amp;nbsp;&lt;div&gt;wpłatę należności na konto&lt;/div&gt;" style="edgeStyle=orthogonalEdgeStyle;rounded=0;orthogonalLoop=1;jettySize=auto;html=1;labelBackgroundColor=none;" edge="1" parent="1" source="dsa9-XPuG5602Wf-8mjY-7" target="dsa9-XPuG5602Wf-8mjY-11">
          <mxGeometry relative="1" as="geometry">
            <mxPoint x="130" y="610" as="targetPoint" />
            <Array as="points">
              <mxPoint x="130" y="560" />
              <mxPoint x="131" y="560" />
            </Array>
          </mxGeometry>
        </mxCell>
        <mxCell id="dsa9-XPuG5602Wf-8mjY-7" value="Skompletowane zamówienie" style="rounded=1;whiteSpace=wrap;html=1;" vertex="1" parent="1">
          <mxGeometry x="70" y="330" width="120" height="60" as="geometry" />
        </mxCell>
        <mxCell id="dsa9-XPuG5602Wf-8mjY-12" value="after(2 tygodnie)&lt;div&gt;status[opłacona]/przygotowanie()&lt;/div&gt;" style="edgeStyle=orthogonalEdgeStyle;rounded=0;orthogonalLoop=1;jettySize=auto;html=1;strokeColor=default;align=center;verticalAlign=bottom;fontFamily=Helvetica;fontSize=11;fontColor=default;labelBackgroundColor=none;endArrow=classic;" edge="1" parent="1" source="dsa9-XPuG5602Wf-8mjY-11" target="dsa9-XPuG5602Wf-8mjY-13">
          <mxGeometry relative="1" as="geometry">
            <mxPoint x="350" y="660" as="targetPoint" />
          </mxGeometry>
        </mxCell>
        <mxCell id="dsa9-XPuG5602Wf-8mjY-11" value="Prośba wysłana" style="rounded=1;whiteSpace=wrap;html=1;fontFamily=Helvetica;fontSize=11;fontColor=default;labelBackgroundColor=none;" vertex="1" parent="1">
          <mxGeometry x="70" y="510" width="120" height="60" as="geometry" />
        </mxCell>
        <mxCell id="dsa9-XPuG5602Wf-8mjY-13" value="Sprawdzono" style="rounded=1;whiteSpace=wrap;html=1;fontFamily=Helvetica;fontSize=11;fontColor=default;labelBackgroundColor=none;" vertex="1" parent="1">
          <mxGeometry x="70" y="680" width="120" height="60" as="geometry" />
        </mxCell>
        <mxCell id="dsa9-XPuG5602Wf-8mjY-15" value="Usunięte zamówienie" style="rounded=1;whiteSpace=wrap;html=1;fontFamily=Helvetica;fontSize=11;fontColor=default;labelBackgroundColor=none;" vertex="1" parent="1">
          <mxGeometry x="380" y="160" width="120" height="60" as="geometry" />
        </mxCell>
      </root>
    </mxGraphModel>
  </diagram>
</mxfile>
